<svg width="338" height="120" viewBox="0 0 338 120" fill="none" xmlns="http://www.w3.org/2000/svg">
<rect width="338" height="120" fill="#1E252F"/>
<path fill-rule="evenodd" clip-rule="evenodd" d="M24 0H0V120H73L73 108L61 96H73V60L61 48H73L49 24L73 24V0H24ZM24 24H24V0L48 24H24ZM24 36L36 36L24 24V36ZM24 36L24 48L36 48L24 36ZM36 84L24 72V84H36ZM48 96L36 84L36 96H48ZM48 96L60 108H48V96Z" fill="#789980"/>
<path d="M54 60L66 72H54V60Z" fill="#CBEAD3"/>
<path d="M54 72L42 60L54 60L54 72Z" fill="#CBEAD3"/>
<path d="M169.56 31.86V33.46C168.547 33.6733 167.427 34.2867 166.2 35.3C164.973 36.26 163.987 37.9667 163.24 40.42L148.12 88.9C148.013 88.9 147.907 88.9 147.8 88.9C147.693 88.9 147.587 88.9 147.48 88.9C147.373 88.9 147.267 88.9 147.16 88.9C147.053 88.9 146.947 88.9 146.84 88.9L129.88 38.58C129.187 36.5 128.413 35.14 127.56 34.5C126.707 33.86 125.907 33.5133 125.16 33.46V31.86C126.12 31.9133 127.32 31.9667 128.76 32.02C130.2 32.0733 131.587 32.1 132.92 32.1C135 32.1 136.947 32.0733 138.76 32.02C140.573 31.9667 142.04 31.9133 143.16 31.86V33.46C141.56 33.5133 140.28 33.6733 139.32 33.94C138.413 34.2067 137.88 34.7933 137.72 35.7C137.613 36.6067 137.88 38.1 138.52 40.18L150.44 77.06L149.32 78.02L159.88 44.82C160.84 41.8867 161.267 39.62 161.16 38.02C161.107 36.3667 160.52 35.22 159.4 34.58C158.28 33.8867 156.6 33.5133 154.36 33.46V31.86C155.907 31.9133 157.48 31.9667 159.08 32.02C160.68 32.0733 162.173 32.1 163.56 32.1C164.947 32.1 166.093 32.0733 167 32.02C167.907 31.9667 168.76 31.9133 169.56 31.86ZM113.64 31.86V33.46C112.253 33.5667 111.24 33.8333 110.6 34.26C110.013 34.6867 109.72 35.38 109.72 36.34C109.773 37.2467 110.067 38.5267 110.6 40.18L123 78.02L121 80.02L132.2 44.26L133.4 46.18L120.2 88.9C120.093 88.9 119.987 88.9 119.88 88.9C119.773 88.9 119.667 88.9 119.56 88.9C119.453 88.9 119.347 88.9 119.24 88.9C119.133 88.9 119.027 88.9 118.92 88.9L101.96 38.58C101.267 36.5 100.387 35.14 99.32 34.5C98.2533 33.86 97.2933 33.5133 96.44 33.46V31.86C97.5067 31.9133 98.8133 31.9667 100.36 32.02C101.96 32.0733 103.507 32.1 105 32.1C106.76 32.1 108.387 32.0733 109.88 32.02C111.427 31.9667 112.68 31.9133 113.64 31.86ZM195.724 38.74C200.63 38.74 204.924 39.7267 208.604 41.7C212.284 43.62 215.137 46.4467 217.164 50.18C219.244 53.86 220.284 58.3667 220.284 63.7C220.284 68.8733 219.217 73.4067 217.084 77.3C215.004 81.1933 212.097 84.2333 208.364 86.42C204.684 88.5533 200.444 89.62 195.644 89.62C190.737 89.62 186.444 88.66 182.764 86.74C179.084 84.7667 176.204 81.9133 174.124 78.18C172.097 74.4467 171.084 69.94 171.084 64.66C171.084 59.4867 172.124 54.9533 174.204 51.06C176.337 47.1667 179.244 44.1533 182.924 42.02C186.657 39.8333 190.924 38.74 195.724 38.74ZM195.404 40.18C192.097 40.18 189.217 41.22 186.764 43.3C184.31 45.3267 182.417 48.1533 181.084 51.78C179.75 55.4067 179.084 59.5933 179.084 64.34C179.084 69.1933 179.83 73.4067 181.324 76.98C182.87 80.5533 184.924 83.3267 187.484 85.3C190.044 87.22 192.87 88.18 195.964 88.18C199.27 88.18 202.15 87.1667 204.604 85.14C207.057 83.06 208.95 80.2067 210.284 76.58C211.617 72.9 212.284 68.7133 212.284 64.02C212.284 59.1133 211.51 54.9 209.964 51.38C208.47 47.8067 206.444 45.06 203.884 43.14C201.377 41.1667 198.55 40.18 195.404 40.18ZM247.557 39.86V41.46C245.744 41.5133 244.357 41.7267 243.397 42.1C242.49 42.42 241.877 43.06 241.557 44.02C241.237 44.9267 241.077 46.3667 241.077 48.34V80.02C241.077 81.94 241.237 83.38 241.557 84.34C241.877 85.3 242.49 85.94 243.397 86.26C244.357 86.5267 245.744 86.66 247.557 86.66H252.597C254.944 86.66 256.97 86.2067 258.677 85.3C260.437 84.3933 261.85 82.9267 262.917 80.9C263.984 78.82 264.65 76.02 264.917 72.5H266.757C266.597 74.1533 266.517 76.34 266.517 79.06C266.517 79.9667 266.544 81.3 266.597 83.06C266.704 84.82 266.864 86.6333 267.077 88.5C264.464 88.3933 261.53 88.34 258.277 88.34C255.024 88.2867 252.117 88.26 249.557 88.26C248.01 88.26 245.957 88.26 243.397 88.26C240.837 88.26 238.117 88.2867 235.237 88.34C232.41 88.34 229.717 88.3933 227.157 88.5V86.9C228.97 86.7933 230.33 86.58 231.237 86.26C232.197 85.94 232.837 85.3 233.157 84.34C233.477 83.38 233.637 81.94 233.637 80.02V48.34C233.637 46.3667 233.477 44.9267 233.157 44.02C232.837 43.06 232.197 42.42 231.237 42.1C230.33 41.7267 228.97 41.5133 227.157 41.46V39.86C228.277 39.9133 229.744 39.9667 231.557 40.02C233.37 40.0733 235.317 40.1 237.397 40.1C239.264 40.1 241.104 40.0733 242.917 40.02C244.784 39.9667 246.33 39.9133 247.557 39.86ZM311.336 39.86C311.123 41.5667 310.963 43.22 310.856 44.82C310.803 46.42 310.776 47.6467 310.776 48.5C310.776 49.46 310.803 50.3933 310.856 51.3C310.91 52.1533 310.963 52.8733 311.016 53.46H309.176C308.803 49.0333 307.87 45.9667 306.376 44.26C304.936 42.5533 302.563 41.7 299.256 41.7H293.416C291.603 41.7 290.216 41.86 289.256 42.18C288.35 42.4467 287.736 43.06 287.416 44.02C287.096 44.9267 286.936 46.3667 286.936 48.34V80.02C286.936 81.94 287.123 83.38 287.496 84.34C287.923 85.3 288.723 85.94 289.896 86.26C291.07 86.58 292.776 86.7933 295.016 86.9V88.5C293.63 88.3933 291.87 88.34 289.736 88.34C287.603 88.2867 285.443 88.26 283.256 88.26C281.176 88.26 279.23 88.2867 277.416 88.34C275.603 88.34 274.136 88.3933 273.016 88.5V86.9C274.83 86.7933 276.19 86.58 277.096 86.26C278.056 85.94 278.696 85.3 279.016 84.34C279.336 83.38 279.496 81.94 279.496 80.02V48.34C279.496 46.3667 279.336 44.9267 279.016 44.02C278.696 43.06 278.056 42.42 277.096 42.1C276.19 41.7267 274.83 41.5133 273.016 41.46V39.86C275.576 39.9133 278.27 39.9667 281.096 40.02C283.976 40.0733 286.696 40.1 289.256 40.1C291.816 40.1 293.87 40.1 295.416 40.1C297.763 40.1 300.403 40.1 303.336 40.1C306.323 40.0467 308.99 39.9667 311.336 39.86ZM299.736 63.22C299.736 63.22 299.736 63.4867 299.736 64.02C299.736 64.5533 299.736 64.82 299.736 64.82H284.536C284.536 64.82 284.536 64.5533 284.536 64.02C284.536 63.4867 284.536 63.22 284.536 63.22H299.736ZM302.056 55.06C301.843 57.5133 301.736 59.3533 301.736 60.58C301.79 61.8067 301.816 62.9533 301.816 64.02C301.816 65.0867 301.843 66.2333 301.896 67.46C301.95 68.6867 302.083 70.5267 302.296 72.98H300.456C300.296 71.6467 300.03 70.3667 299.656 69.14C299.283 67.9133 298.643 66.9 297.736 66.1C296.83 65.2467 295.443 64.82 293.576 64.82V63.22C295.443 63.22 296.803 62.74 297.656 61.78C298.563 60.82 299.176 59.7 299.496 58.42C299.816 57.14 300.056 56.02 300.216 55.06H302.056Z" fill="#CCCED0"/>
</svg>
